<!-- Generated by IcoMoon.io -->
<svg version="1.1" xmlns="http://www.w3.org/2000/svg" width="512" height="512" viewBox="0 0 512 512">
<title></title>
<g id="icomoon-ignore">
</g>
<path fill="#000" d="M256 0.001c-45.349 0-82.286 38.278-82.286 85.333v36.572h-100.571v390.096h365.714v-390.096h-100.571v-36.572c0-47.055-36.913-85.333-82.286-85.333zM201.143 85.334c0-31.378 24.625-56.88 54.857-56.88s54.857 25.502 54.857 56.88v36.572h-109.714v-36.572zM414.476 146.286v341.334h-316.952v-341.334h76.19v38.595c0 7.875 6.144 14.238 13.726 14.238 7.558 0 13.702-6.363 13.702-14.238v-38.595h109.714v38.595c0 7.875 6.144 14.238 13.726 14.238 7.558 0 13.702-6.363 13.702-14.238v-38.595h76.19z"></path>
</svg>
