<?xml version="1.0" encoding="UTF-8"?>
<svg width="29px" height="29px" viewBox="0 0 29 29" version="1.1" xmlns="http://www.w3.org/2000/svg" xmlns:xlink="http://www.w3.org/1999/xlink">
    <!-- Generator: sketchtool 52.5 (67469) - http://www.bohemiancoding.com/sketch -->
    <title>0A080666-26E6-4178-A615-19C9D2AADED4</title>
    <desc>Created with sketchtool.</desc>
    <g id="Symbols" stroke="none" stroke-width="1" fill="none" fill-rule="evenodd">
        <g id="Icons-/-Circled" fill-rule="nonzero">
            <circle id="Oval" fill="#F3F3F3" cx="14.5" cy="14.5" r="14.5"></circle>
            <g id="Icons-/-Info" transform="translate(5.000000, 5.000000)" fill="#000000">
                <path d="M11.137931,4.32413793 C10.5951534,4.32413793 10.1551724,4.76413862 10.1551724,5.30689655 C10.1551724,5.84965448 10.5951534,6.28965517 11.137931,6.28965517 C11.680689,6.28965517 12.1206897,5.84965448 12.1206897,5.30689655 C12.1206897,4.76413862 11.680689,4.32413793 11.137931,4.32413793 Z M9.56937144,6.17603487 C8.81715117,6.20343065 8.0172729,6.50403262 7.34584589,6.92186515 L7.27410849,7.55661432 C7.90847743,7.35509246 8.55939314,7.35719982 8.7543027,7.83696187 C9.22890048,9.00400153 7.60733893,11.046274 7.16326815,12.1162241 C5.95856809,15.0190251 8.8496813,15.3544097 10.9126428,14.1580006 L10.9908904,13.4703557 C9.8685068,13.7554681 9.064038,13.4052727 9.71284624,11.8887808 C10.0254402,11.1572789 12.641414,7.47137851 10.8343952,6.45638242 C10.4560315,6.24381762 10.0207245,6.15959741 9.56937144,6.17603487 Z" id="Shape"></path>
            </g>
        </g>
    </g>
</svg>