<!-- Generated by IcoMoon.io -->
<svg version="1.1" xmlns="http://www.w3.org/2000/svg" width="512" height="512" viewBox="0 0 512 512">
<title></title>
<g id="icomoon-ignore">
</g>
<path fill="#FFF" d="M45.172 481.882h421.647c-11.773-101.512-101.822-180.706-210.813-180.706s-199.083 79.195-210.834 180.706zM500.632 512h-489.265l3.887-33.581c13.623-117.675 117.465-207.36 240.752-207.36 123.276 0 227.082 89.673 240.73 207.353l3.896 33.587zM255.995 30.117c-66.427 0-120.47 54.043-120.47 120.47s54.043 120.47 120.47 120.47c66.427 0 120.47-54.043 120.47-120.47s-54.043-120.47-120.47-120.47zM255.995 0c83.061 0 150.589 67.528 150.589 150.589s-67.527 150.589-150.589 150.589c-83.061 0-150.589-67.528-150.589-150.589s67.528-150.589 150.589-150.589z"></path>
</svg>
