<svg xmlns="http://www.w3.org/2000/svg" width="40" height="24" viewBox="0 0 40 24">
    <g fill="none" fill-rule="evenodd">
        <path fill="#0072CE" d="M0 1.603C0 .718.72 0 1.599 0H38.4C39.284 0 40 .718 40 1.603v20.794c0 .885-.72 1.603-1.599 1.603H1.6A1.601 1.601 0 0 1 0 22.397V1.603z"/>
        <path fill="#FFF" d="M33.763 13.866H32.35c-.141 0-.235.006-.314.059-.082.052-.113.13-.113.232 0 .122.069.205.17.241.081.029.169.037.298.037l.42.011c.424.01.707.083.88.26.031.025.05.053.072.08v-.92zm0 2.133c-.188.275-.555.414-1.052.414h-1.498v-.694h1.492c.148 0 .251-.02.313-.08a.284.284 0 0 0 .092-.21.265.265 0 0 0-.095-.215c-.056-.05-.138-.072-.273-.072-.728-.024-1.636.023-1.636-1.001 0-.47.299-.963 1.112-.963h1.545v-.644h-1.435c-.433 0-.748.104-.97.264v-.264h-2.123c-.34 0-.738.084-.927.264v-.264h-3.79v.264c-.302-.217-.81-.264-1.046-.264h-2.5v.264c-.238-.23-.77-.264-1.093-.264h-2.798l-.64.691-.6-.69h-4.18v4.513h4.101l.66-.702.622.702 2.528.002V15.99h.248c.336.005.731-.009 1.08-.16v1.22h2.085v-1.177h.101c.128 0 .141.005.141.133v1.043h6.334c.403 0 .823-.103 1.056-.289v.289h2.009c.418 0 .826-.058 1.137-.208v-.841zm-3.093-1.292c.15.155.232.352.232.685 0 .696-.436 1.02-1.218 1.02h-1.51v-.693h1.504c.147 0 .251-.02.316-.08a.286.286 0 0 0 .092-.21.277.277 0 0 0-.095-.215c-.059-.05-.14-.072-.276-.072-.725-.024-1.633.023-1.633-1.001 0-.47.296-.963 1.109-.963h1.554v.688h-1.422c-.141 0-.233.006-.311.059-.085.052-.116.13-.116.233 0 .122.072.205.17.24.081.029.169.037.3.037l.418.011c.421.01.71.083.886.26zm-6.997-.2c-.104.061-.232.066-.383.066h-.942v-.726h.955c.138 0 .276.003.37.058.1.053.16.153.16.291 0 .139-.06.25-.16.31zm.468.402a.843.843 0 0 1 .38.272c.11.158.125.305.129.59v.642h-.779v-.405c0-.195.019-.483-.125-.633-.114-.116-.286-.144-.57-.144h-.828v1.182h-.779v-3.235h1.79c.393 0 .679.017.933.152.245.148.399.35.399.719 0 .516-.346.78-.55.86zm.98-1.731h2.588v.669h-1.816v.588h1.771v.66h-1.771v.644l1.816.003v.67H25.12v-3.234zm-5.232 1.493h-1.002v-.824h1.011c.28 0 .474.114.474.397 0 .28-.185.427-.483.427zm-1.774 1.448l-1.19-1.318 1.19-1.276v2.594zm-3.075-.38h-1.906v-.644h1.702v-.66h-1.702v-.588h1.944l.848.943-.886.949zm6.165-1.495c0 .898-.673 1.084-1.35 1.084h-.968v1.085H17.38l-.955-1.071-.992 1.07H12.36v-3.234h3.12l.953 1.06.986-1.06h2.478c.616 0 1.307.17 1.307 1.066zM8.662 9.45l-.53-1.29-.528 1.29h1.058zm11.692-.514c-.107.065-.233.067-.384.067h-.942v-.718h.955c.135 0 .276.006.368.058.1.047.163.147.163.286 0 .141-.06.255-.16.307zm6.72.514l-.537-1.29-.533 1.29h1.07zm-12.527 1.395h-.795l-.003-2.533-1.124 2.533h-.68L10.816 8.31v2.535H9.24l-.298-.721H7.327l-.3.721h-.843l1.389-3.234h1.152l1.319 3.062V7.611h1.265l1.015 2.194.932-2.194h1.291v3.234zm3.169 0h-2.59V7.611h2.59v.674H15.9v.582h1.771v.663h-1.771v.646h1.815v.67zm3.652-2.363a.91.91 0 0 1-.547.862c.17.065.315.178.384.273.11.16.128.304.128.593v.635h-.782l-.003-.408c0-.194.019-.474-.122-.63-.113-.113-.286-.138-.565-.138h-.833v1.176h-.775V7.611h1.783c.397 0 .689.01.94.155.245.144.392.355.392.716zm1.24 2.363h-.79V7.611h.79v3.234zm9.18 0h-1.1L29.22 8.418v2.427h-1.58l-.3-.721h-1.612l-.292.721h-.908c-.377 0-.854-.083-1.124-.357-.273-.275-.414-.647-.414-1.235 0-.48.084-.918.418-1.265.25-.258.643-.377 1.177-.377h.75v.693H24.6c-.283 0-.443.042-.597.192-.132.136-.223.393-.223.732 0 .347.07.597.214.76.119.128.336.167.54.167h.348l1.093-2.544h1.162l1.313 3.06V7.61h1.18l1.363 2.253V7.61h.795v3.234zm-25.613.636H7.5l.299-.719h.669l.298.719h2.606v-.55l.233.552h1.353l.233-.56v.558h6.478l-.003-1.18h.126c.087.003.113.011.113.156v1.024h3.35v-.275c.27.144.691.275 1.244.275h1.41l.302-.719h.668l.295.719h2.717v-.683l.411.683h2.177V6.97h-2.154v.532l-.302-.532h-2.21v.532l-.278-.532H24.55c-.5 0-.94.07-1.294.263V6.97h-2.06v.263c-.227-.2-.534-.263-.877-.263h-7.527l-.505 1.165-.52-1.165h-2.37v.532l-.26-.532H7.113l-.939 2.144v2.367z"/>
    </g>
</svg>
