<svg version="1.1" xmlns="http://www.w3.org/2000/svg" width="512" height="512" viewBox="0 0 512 512">
<path fill="#000" d="M0 159.194c0-19.153 3.792-37.357 11.188-54.803 7.396-17.256 17.636-32.237 30.341-44.752 12.705-12.326 27.686-22.186 45.132-29.582s35.84-11.188 55.182-11.188c22.566 0 43.994 5.12 64.284 15.36 20.193 10.233 36.969 24.522 49.793 41.906l0.269 0.382c13.092-17.765 29.87-32.054 49.272-41.922l0.79-0.364c20.291-10.24 41.719-15.36 64.284-15.36 19.152 0 37.546 3.793 54.993 11.188s32.427 17.256 45.132 29.771c12.705 12.516 22.755 27.306 30.151 44.752 7.396 17.256 11.188 35.46 11.188 54.614 0 12.516-1.327 24.651-3.793 36.599s-5.689 22.566-9.292 32.047-8.913 19.532-15.929 30.151-13.274 19.342-18.963 26.548c-5.689 7.206-13.464 15.74-23.514 25.789s-18.204 17.825-24.651 23.514c-6.257 5.689-15.36 13.653-27.306 24.083-18.963 16.877-33.375 29.772-43.425 39.253-10.050 9.292-22.566 22.376-37.546 39.063s-27.875 33.375-38.874 50.062c-3.224 4.551-7.585 6.827-12.705 6.827-4.93 0-8.912-2.276-12.326-6.827-8.534-12.515-17.636-24.272-27.306-35.65s-20.48-22.755-32.806-34.512c-12.326-11.757-21.618-20.48-28.255-26.358-6.447-5.878-16.877-14.981-31.289-27.497-12.516-10.809-21.997-19.152-28.254-25.031-6.448-5.689-14.791-13.843-25.221-23.894-10.43-10.24-18.394-18.773-23.894-25.979-5.499-7.017-11.757-15.929-18.773-26.548-6.012-8.74-11.309-18.743-15.402-29.346l-0.338-0.995c-3.413-9.482-6.447-20.48-8.912-32.806-2.086-12.516-3.224-25.221-3.224-38.495zM30.151 159.194c0 7.964 0.379 15.549 1.328 22.946s2.655 14.601 4.741 21.618c2.086 7.017 4.361 13.464 6.447 19.343 2.086 5.689 5.309 11.947 9.482 18.583s7.965 12.326 10.998 16.877c3.035 4.741 7.585 10.24 13.653 16.877 6.068 6.447 10.809 11.757 14.602 15.74s9.292 9.292 16.688 16.118 13.085 11.947 17.067 15.55c3.982 3.603 10.24 9.102 18.773 16.498 17.636 15.36 30.53 26.928 38.874 34.512s19.911 18.963 34.512 33.944c14.791 15.17 27.496 29.772 38.685 43.994 10.62-14.601 23.135-29.582 37.357-44.752s26.358-27.306 36.219-36.409 22.755-20.67 38.874-34.892c30.909-27.497 51.959-47.597 63.337-60.113 26.358-29.013 42.098-58.596 47.407-88.557 1.707-8.912 2.465-18.015 2.465-27.686 0-30.53-10.809-56.51-32.617-78.127-21.808-21.428-47.976-32.237-78.697-32.237-21.618 0-41.529 5.879-59.733 17.256-17.777 11.171-31.76 26.921-40.495 45.612l-0.276 0.657c-3.034 5.689-7.774 8.344-13.843 8.344-6.257 0-10.809-2.844-13.274-8.344-9.346-19.292-23.477-35.004-40.883-46.001l-0.456-0.269c-16.681-10.823-37.079-17.258-58.981-17.258-0.198 0-0.396 0.001-0.594 0.002h0.030c-30.72 0-56.889 10.809-78.886 32.427-21.808 21.428-32.806 47.407-32.806 77.748z"></path>
</svg>