<svg xmlns="http://www.w3.org/2000/svg" width="100" height="60" viewBox="0 0 30 18">
    <g fill="none" fill-rule="evenodd">
        <path fill="#04539C" d="M0 1.202C0 .538.54 0 1.2 0h27.6A1.2 1.2 0 0 1 30 1.202v15.596c0 .664-.54 1.202-1.2 1.202H1.2A1.2 1.2 0 0 1 0 16.798V1.202z"/>
        <path fill="#C00" d="M16.839 9.146a5.854 5.854 0 1 1-11.709 0 5.854 5.854 0 0 1 11.709 0"/>
        <path fill="#F90" d="M18.844 3.291a5.834 5.834 0 0 0-4.521 2.135h1.183c.161.197.31.404.446.62h-2.076a5.882 5.882 0 0 0-.337.62h2.75c.094.201.177.408.248.62h-3.246a5.828 5.828 0 0 0-.17.62h3.586a5.897 5.897 0 0 1-.17 3.1h-3.246c.071.212.154.419.248.62h2.75c-.1.213-.213.42-.337.62h-2.076c.136.216.285.423.447.619h1.182a5.85 5.85 0 0 1-.591.62 5.854 5.854 0 1 0 3.93-10.194"/>
        <path fill="#006" d="M9.617 9.787a1.093 1.093 0 0 0-.142-.01c-.36 0-.542.123-.542.367 0 .15.089.246.227.246.26 0 .446-.246.457-.603zm.462 1.076h-.526l.012-.25c-.16.197-.375.291-.666.291-.345 0-.581-.268-.581-.66 0-.587.41-.93 1.116-.93.072 0 .164.006.259.018a.596.596 0 0 0 .025-.156c0-.16-.111-.22-.408-.22a2.12 2.12 0 0 0-.673.109l.089-.543c.316-.094.525-.128.76-.128.546 0 .835.245.834.708.002.124-.02.277-.051.478-.055.35-.174 1.1-.19 1.283zM8.052 10.863h-.636l.365-2.283-.814 2.283h-.433l-.053-2.27-.383 2.27h-.595L6 7.893h.914l.055 1.662.558-1.662h1.017l-.492 2.97M19.63 9.787a1.088 1.088 0 0 0-.142-.01c-.36 0-.542.123-.542.367 0 .15.088.246.227.246.259 0 .446-.246.457-.603zm.462 1.076h-.526l.011-.25c-.16.197-.374.291-.665.291-.345 0-.581-.268-.581-.66 0-.587.41-.93 1.116-.93.072 0 .164.006.259.018a.593.593 0 0 0 .024-.156c0-.16-.11-.22-.407-.22a2.124 2.124 0 0 0-.673.109l.088-.543c.317-.094.526-.128.76-.128.547 0 .836.245.835.708.001.124-.02.277-.051.478-.055.35-.174 1.1-.19 1.283zM12.904 10.826c-.174.055-.31.078-.457.078-.325 0-.502-.186-.502-.53-.004-.107.047-.388.087-.644l.276-1.648h.632l-.074.366h.381l-.086.58h-.383c-.073.46-.178 1.031-.179 1.107 0 .125.067.18.218.18a.517.517 0 0 0 .171-.024l-.084.535M14.841 10.806a2.149 2.149 0 0 1-.648.098c-.708 0-1.076-.37-1.076-1.077 0-.825.469-1.433 1.106-1.433.52 0 .853.34.853.873 0 .178-.023.35-.078.595H13.74c-.042.35.182.496.55.496.225 0 .43-.047.656-.152l-.105.6zm-.355-1.431c.004-.05.067-.431-.294-.431-.201 0-.345.153-.404.43h.698zM10.46 9.211c0 .305.149.516.484.674.258.122.298.157.298.267 0 .15-.114.219-.365.219-.19 0-.366-.03-.57-.096l-.087.558c.144.031.273.06.661.071.67 0 .98-.255.98-.807 0-.332-.129-.526-.447-.673-.267-.122-.297-.15-.297-.262 0-.13.105-.197.31-.197.125 0 .296.013.457.036l.09-.56a4.291 4.291 0 0 0-.559-.047c-.71 0-.957.371-.954.817M17.932 8.457c.177 0 .342.046.568.16l.104-.644c-.093-.036-.42-.251-.698-.251-.426 0-.786.211-1.038.56-.37-.123-.521.124-.707.37l-.165.039c.013-.081.024-.162.02-.243h-.584c-.08.747-.22 1.504-.331 2.252l-.029.163h.636c.106-.69.164-1.131.2-1.43l.239-.133c.036-.133.147-.178.372-.173-.03.158-.045.324-.045.495 0 .79.427 1.282 1.11 1.282.177 0 .328-.023.563-.087l.111-.676c-.21.103-.383.152-.54.152-.37 0-.593-.273-.593-.723 0-.654.332-1.113.807-1.113M23.313 7.893l-.141.858c-.173-.229-.36-.394-.607-.394-.32 0-.612.243-.803.601a5.23 5.23 0 0 1-.542-.15v.003c.021-.2.03-.322.028-.363h-.584c-.079.747-.22 1.504-.33 2.252l-.03.163h.636c.086-.558.151-1.021.2-1.388.217-.196.326-.367.545-.356a2.07 2.07 0 0 0-.154.783c0 .604.305 1.002.768 1.002.233 0 .411-.08.586-.266l-.03.225h.601l.484-2.97h-.627zm-.795 2.412c-.216 0-.325-.16-.325-.476 0-.475.204-.812.493-.812.218 0 .336.167.336.473 0 .48-.208.815-.504.815z"/>
        <path fill="#FFF" d="M8.235 10.686h-.636l.365-2.282-.813 2.282h-.434l-.053-2.269-.383 2.27h-.595l.497-2.97h.914l.026 1.838.616-1.838h.987l-.491 2.97M9.8 9.61a1.057 1.057 0 0 0-.142-.01c-.36 0-.542.124-.542.368 0 .15.089.247.227.247.26 0 .446-.247.457-.604zm.462 1.076h-.526l.012-.25c-.16.198-.375.292-.666.292-.345 0-.581-.269-.581-.66 0-.588.41-.93 1.116-.93.072 0 .164.006.259.019a.6.6 0 0 0 .025-.158c0-.16-.11-.219-.408-.219a2.111 2.111 0 0 0-.673.108l.088-.543c.317-.092.526-.128.761-.128.546 0 .835.246.834.709.001.124-.019.277-.051.478-.055.35-.174 1.1-.19 1.282zM18.787 7.797l-.104.644c-.227-.114-.391-.16-.568-.16-.474 0-.807.459-.807 1.113 0 .45.224.723.593.723.157 0 .33-.048.54-.152l-.112.676a1.983 1.983 0 0 1-.561.087c-.685 0-1.111-.492-1.111-1.282 0-1.061.59-1.803 1.432-1.803.277 0 .605.117.698.154M19.812 9.61a1.049 1.049 0 0 0-.141-.01c-.36 0-.543.124-.543.368 0 .15.09.247.228.247.259 0 .446-.247.456-.604zm.463 1.076h-.527l.012-.25c-.16.198-.375.292-.666.292-.344 0-.58-.269-.58-.66 0-.588.41-.93 1.116-.93.072 0 .164.006.258.019a.596.596 0 0 0 .025-.158c0-.16-.11-.219-.407-.219a2.113 2.113 0 0 0-.673.108l.088-.543c.317-.092.526-.128.76-.128.546 0 .836.246.835.709.001.124-.02.277-.051.478-.055.35-.174 1.1-.19 1.282zM13.087 10.65c-.174.055-.31.078-.457.078-.325 0-.502-.186-.502-.53-.005-.107.047-.387.087-.644l.276-1.648h.632l-.074.366h.324l-.086.58h-.326c-.073.46-.178 1.031-.179 1.107 0 .125.067.18.218.18a.509.509 0 0 0 .171-.024l-.084.535M15.024 10.63a2.164 2.164 0 0 1-.648.098c-.708 0-1.076-.37-1.076-1.077 0-.826.469-1.434 1.105-1.434.521 0 .854.34.854.875 0 .177-.023.35-.078.594h-1.258c-.043.35.182.496.55.496.225 0 .43-.047.656-.152l-.105.6zM14.67 9.2c.003-.051.067-.432-.294-.432-.201 0-.345.154-.404.432h.698zM10.643 9.035c0 .306.149.516.485.674.257.121.297.157.297.267 0 .15-.114.218-.365.218-.19 0-.366-.029-.57-.095l-.087.558c.144.031.273.06.661.071.67 0 .98-.255.98-.807 0-.332-.129-.526-.447-.673-.267-.122-.297-.15-.297-.262 0-.13.105-.198.31-.198.125 0 .296.014.457.037l.09-.56a4.327 4.327 0 0 0-.559-.048c-.71 0-.957.372-.955.818M23.639 10.686h-.601l.03-.224c-.175.186-.353.266-.586.266-.462 0-.768-.398-.768-1.002 0-.803.474-1.48 1.034-1.48.247 0 .433.1.607.33l.141-.859h.627l-.484 2.97zm-.938-.558c.296 0 .504-.335.504-.813 0-.307-.118-.474-.337-.474-.288 0-.492.337-.492.812 0 .316.11.475.325.475zM20.847 8.272c-.079.747-.22 1.504-.33 2.252l-.03.162h.636c.227-1.476.282-1.765.639-1.729a2.37 2.37 0 0 1 .24-.7c-.265-.055-.414.095-.609.38.016-.123.044-.243.038-.365h-.584M15.616 8.272c-.08.747-.222 1.504-.332 2.252l-.03.162h.637c.227-1.476.282-1.765.638-1.729.057-.302.163-.567.242-.7-.266-.055-.415.095-.61.38.016-.123.044-.243.038-.365h-.583"/>
    </g>
</svg>
