<?xml version="1.0" encoding="UTF-8"?>
<svg width="130px" height="14px" viewBox="0 0 130 14" version="1.1" xmlns="http://www.w3.org/2000/svg" xmlns:xlink="http://www.w3.org/1999/xlink">
    <!-- Generator: sketchtool 52.5 (67469) - http://www.bohemiancoding.com/sketch -->
    <title>45A889C2-7AA4-4F47-83FC-4CAE922AE75A</title>
    <desc>Created with sketchtool.</desc>
    <g id="00-Menu" stroke="none" stroke-width="1" fill="none" fill-rule="evenodd">
        <g id="D-/-MNU-/-00-/-States" transform="translate(-40.000000, -100.000000)" fill="#ffffff" fill-rule="nonzero">
            <g id="Stacked-Group" transform="translate(0.000000, 40.000000)">
                <g id="Menu">
                    <g id="UI-/-Desktop-Header-/-White-/-Default" transform="translate(0.000000, 37.000000)">
                        <g id="_Brand-/-Logo" transform="translate(40.000000, 23.000000)">
                            <path d="M106.516505,0.418099064 L116.213929,0.418099064 L116.213929,2.95596038 L109.785323,2.95596038 L109.785323,5.32658207 L115.786194,5.32658207 L115.786194,7.80800002 L109.785323,7.80800002 L109.785323,10.9207475 L116.788436,10.9207475 L116.788436,13.4941473 L106.514408,13.4941473 L106.516505,0.418099064 Z M120.344507,9.67481234 C120.692016,10.0939656 121.119657,10.4400341 121.602552,10.6928836 C122.377408,11.103364 123.241199,11.3186687 124.11864,11.3200322 C125.418619,11.3200322 126.531988,10.707517 126.531988,9.80024206 C126.531988,8.7549944 125.213138,8.59611675 124.248638,8.46650604 C123.523166,8.37452425 122.79979,8.28254246 122.093189,8.13411729 C121.294331,7.96687766 118.562278,7.39199145 118.562278,4.58027524 C118.562278,1.20830629 121.573197,0.209049532 123.839774,0.209049532 C126.867467,0.209049532 128.502924,1.67239626 129.635164,2.69046748 L127.219719,4.41303562 C126.837889,4.00241795 126.400322,3.64707449 125.91974,3.35733548 C125.263369,2.9994426 124.53101,2.80238782 123.783162,2.78244927 C122.483183,2.78244927 121.833193,3.52457511 121.833193,4.1538142 C121.833193,5.15307096 122.946562,5.30149613 123.510585,5.37675396 C124.904918,5.54190309 126.7815,5.8951968 127.523746,6.15441822 C129.029206,6.70839948 129.790323,7.87698636 129.790323,9.35705705 C129.778727,10.3771171 129.407611,11.3606057 128.741952,12.1353253 C127.553101,13.5066903 125.657647,13.8955224 123.818806,13.8955224 C120.122253,13.8955224 118.654535,12.1917687 117.836806,11.2468648 L120.344507,9.67481234 Z M96.4500547,0.418099064 L99.7188729,0.418099064 L99.7188729,10.7535079 L104.845403,10.7535079 L104.845403,13.5129617 L96.4584417,13.5129617 L96.4500547,0.418099064 Z M22.9194684,0.418099064 L22.9194684,13.4941473 L19.6317796,13.4941473 L19.6317796,7.92297726 L14.8386312,7.92297726 L14.8386312,13.4962378 L11.5320718,13.4962378 L11.5320718,0.418099064 L14.8386312,0.418099064 L14.8386312,5.14261849 L19.6317796,5.14261849 L19.6317796,0.418099064 L22.9194684,0.418099064 Z M24.7415358,0.418099064 L34.4389598,0.418099064 L34.4389598,2.95596038 L28.0124507,2.95596038 L28.0124507,5.32658207 L34.0112247,5.32658207 L34.0112247,7.80800002 L28.0124507,7.80800002 L28.0124507,10.9207475 L35.0155634,10.9207475 L35.0155634,13.4941473 L24.7415358,13.4941473 L24.7415358,0.418099064 Z M41.9348064,0.418099064 L45.0568527,0.418099064 L45.0568527,5.75304312 L49.9611284,0.418099064 L53.8988067,0.418099064 L49.2545269,5.2722292 L54.2699297,13.4941473 L50.5733765,13.4941473 L47.0634332,7.56759306 L45.0568527,9.65808838 L45.0568527,13.4920568 L41.9348064,13.4920568 L41.9348064,0.418099064 Z M60.8264367,13.8642242 C56.6644072,13.8642242 54.3055743,10.6783093 54.3055743,6.89869377 C54.3055743,3.36157569 56.5532799,5.92171122e-05 60.7698247,5.92171122e-05 C61.5852581,-0.00322767485 62.3954313,0.130338964 63.1663989,0.395162832 C67.1795599,1.78534222 67.4395557,6.13775347 67.4395557,7.02621399 C67.4395557,9.28603943 66.3911855,11.3242724 64.9507249,12.4907688 C63.6675198,13.5485594 62.1809309,13.8642242 60.8264367,13.8642242 Z M63.093013,3.69605494 C62.4874459,3.0757595 61.6547921,2.72784122 60.7865986,2.7323366 C58.7988888,2.7323366 57.5345544,4.4737192 57.5345544,6.84434089 C57.5345544,9.95499793 59.2811391,11.1026799 60.82434,11.1026799 C62.3675408,11.1026799 64.0554168,9.99262684 64.1497701,7.25198748 C64.2063821,5.88062255 63.843646,4.49044316 63.093013,3.69605494 Z M75.2939449,13.8643193 C71.1319154,13.8643193 68.7730825,10.6784045 68.7730825,6.89878893 C68.7730825,3.36167085 71.0207881,0.000154378495 75.2373329,0.000154378495 C76.0524089,-0.00515042825 76.8625725,0.126294545 77.6339071,0.388986508 C81.6470681,1.7791659 81.9070639,6.13157715 81.9070639,7.02003766 C81.9070639,9.2798631 80.8586937,11.318096 79.4182331,12.4845924 C78.1371248,13.5486545 76.6505359,13.8643193 75.2939449,13.8643193 Z M77.5605212,3.6961501 C76.9552329,3.07544664 76.1223966,2.7274521 75.2541068,2.73243176 C73.266397,2.73243176 72.0041593,4.47381436 72.0041593,6.84443605 C72.0041593,9.95509309 73.750744,11.102775 75.2918482,11.102775 C76.8329523,11.102775 78.5250217,9.99272201 78.6172783,7.25208264 C78.675987,5.88071771 78.3027673,4.49053832 77.5605212,3.6961501 Z M1.02318154e-12,0.418099064 L10.1062883,0.418099064 L10.1062883,3.01240376 L6.70747229,3.01240376 L6.70747229,13.5129617 L3.41768672,13.5129617 L3.41768672,3.01449425 L1.02318154e-12,3.01449425 L1.02318154e-12,0.418099064 Z M83.6599388,0.418099064 L88.9374342,0.418099064 C91.0928832,0.418099064 93.0051104,0.418099064 94.1583176,2.06749987 C94.6527822,2.8753555 94.9099465,3.80534277 94.9005636,4.75169586 C94.9075398,5.45596919 94.7548724,6.1527174 94.453958,6.7899288 C93.3217182,9.12501207 90.9062733,9.17936495 89.1219473,9.21699386 L86.9497244,9.21699386 L86.9497244,13.4941473 L83.6599388,13.4941473 L83.6599388,0.418099064 Z M86.9497244,2.82634967 L86.9497244,6.79829078 L88.9185635,6.79829078 C90.1451566,6.79829078 91.6317455,6.76066186 91.6317455,4.74333388 C91.6317455,2.83471165 89.9774174,2.83471165 89.0296907,2.83471165 L86.9497244,2.82634967 Z" id="Logo-TK"></path>
                        </g>
                    </g>
                </g>
            </g>
        </g>
    </g>
</svg>